<svg width="160" height="90" viewBox="0 0 160 90" fill="none" xmlns="http://www.w3.org/2000/svg">
<g clip-path="url(#clip0_1367_1726)">
<rect width="160" height="90" rx="16" fill="white"/>
<g clip-path="url(#clip1_1367_1726)">
<path d="M73.8155 45.385C73.8155 49.5491 70.5316 52.6176 66.5015 52.6176C62.4714 52.6176 59.1875 49.5491 59.1875 45.385C59.1875 41.1915 62.4714 38.1523 66.5015 38.1523C70.5316 38.1523 73.8155 41.1915 73.8155 45.385ZM70.6138 45.385C70.6138 42.7828 68.7105 41.0023 66.5015 41.0023C64.2925 41.0023 62.3892 42.7828 62.3892 45.385C62.3892 47.961 64.2925 49.7676 66.5015 49.7676C68.7105 49.7676 70.6138 47.9578 70.6138 45.385Z" fill="#EA4335"/>
<path d="M89.5929 45.385C89.5929 49.5491 86.309 52.6176 82.2789 52.6176C78.2488 52.6176 74.9648 49.5491 74.9648 45.385C74.9648 41.1947 78.2488 38.1523 82.2789 38.1523C86.309 38.1523 89.5929 41.1915 89.5929 45.385ZM86.3911 45.385C86.3911 42.7828 84.4879 41.0023 82.2789 41.0023C80.0699 41.0023 78.1666 42.7828 78.1666 45.385C78.1666 47.961 80.0699 49.7676 82.2789 49.7676C84.4879 49.7676 86.3911 47.9578 86.3911 45.385Z" fill="#FBBC05"/>
<path d="M104.715 38.5893V51.5741C104.715 56.9154 101.54 59.0969 97.786 59.0969C94.2523 59.0969 92.1255 56.7523 91.3234 54.835L94.111 53.6839C94.6073 54.861 95.8236 56.2502 97.7828 56.2502C100.186 56.2502 101.675 54.7795 101.675 52.011V50.9708H101.563C100.846 51.848 99.4658 52.6143 97.7236 52.6143C94.0781 52.6143 90.7383 49.4643 90.7383 45.411C90.7383 41.3284 94.0781 38.1523 97.7236 38.1523C99.4625 38.1523 100.843 38.9186 101.563 39.7697H101.675V38.5926H104.715V38.5893ZM101.902 45.411C101.902 42.8643 100.189 41.0023 98.0096 41.0023C95.8006 41.0023 93.9499 42.8643 93.9499 45.411C93.9499 47.9317 95.8006 49.7676 98.0096 49.7676C100.189 49.7676 101.902 47.9317 101.902 45.411Z" fill="#4285F4"/>
<path d="M109.728 30.9785V52.1742H106.605V30.9785H109.728Z" fill="#34A853"/>
<path d="M121.897 47.7647L124.382 49.4082C123.58 50.5854 121.647 52.6137 118.307 52.6137C114.166 52.6137 111.072 49.4376 111.072 45.381C111.072 41.08 114.192 38.1484 117.949 38.1484C121.733 38.1484 123.583 41.1354 124.188 42.7495L124.52 43.5713L114.774 47.5756C115.52 49.0267 116.68 49.7669 118.307 49.7669C119.938 49.7669 121.069 48.9713 121.897 47.7647ZM114.248 45.1626L120.763 42.4789C120.405 41.5756 119.326 40.9463 118.058 40.9463C116.43 40.9463 114.166 42.3713 114.248 45.1626Z" fill="#EA4335"/>
<path d="M47.365 43.5023V40.4339H57.7887C57.8906 40.9686 57.9432 41.6013 57.9432 42.286C57.9432 44.5882 57.3088 47.435 55.2641 49.4632C53.2754 51.5176 50.7344 52.6132 47.3683 52.6132C41.1292 52.6132 35.8828 47.5719 35.8828 41.3828C35.8828 35.1936 41.1292 30.1523 47.3683 30.1523C50.8198 30.1523 53.2787 31.4958 55.1261 33.2469L52.9434 35.4121C51.6186 34.1795 49.8238 33.2208 47.365 33.2208C42.8089 33.2208 39.2456 36.8632 39.2456 41.3828C39.2456 45.9023 42.8089 49.5447 47.365 49.5447C50.3202 49.5447 52.0032 48.3676 53.0814 47.298C53.9558 46.4306 54.5311 45.1915 54.7579 43.4991L47.365 43.5023Z" fill="#4285F4"/>
</g>
</g>
<defs>
<clipPath id="clip0_1367_1726">
<rect width="160" height="90" fill="white"/>
</clipPath>
<clipPath id="clip1_1367_1726">
<rect width="89.4118" height="30" fill="white" transform="translate(35.7656 30)"/>
</clipPath>
</defs>
</svg>
