<svg width="160" height="90" viewBox="0 0 160 90" fill="none" xmlns="http://www.w3.org/2000/svg">
<g clip-path="url(#clip0_1367_1717)">
<rect width="160" height="90" rx="16" fill="white"/>
<g clip-path="url(#clip1_1367_1717)">
<path d="M63.118 46.8526L62.4336 48.7799H62.3766C62.2625 48.3453 62.0534 47.684 61.7112 46.8904L58.0422 37.7262H54.4492V52.3323H56.8255V43.3192C56.8255 42.7523 56.8255 42.1099 56.8065 41.3163C56.7875 40.9195 56.7495 40.6171 56.7305 40.3904H56.7875C56.9016 40.9573 57.0346 41.373 57.1297 41.6375L61.5401 52.2945H63.2131L67.5855 41.543C67.6805 41.2974 67.7756 40.8061 67.8706 40.3904H67.9277C67.8706 41.4674 67.8326 42.4311 67.8136 43.0169V52.2756H70.342V37.6884H66.8821L63.118 46.8526ZM72.7373 41.8075H75.2087V52.2756H72.7373V41.8075ZM73.992 37.386C73.5738 37.386 73.2316 37.5372 72.9464 37.8017C72.6613 38.0663 72.5092 38.4064 72.5092 38.8221C72.5092 39.2189 72.6613 39.559 72.9464 39.8235C73.2316 40.0881 73.5738 40.2203 73.992 40.2203C74.4103 40.2203 74.7715 40.0692 75.0376 39.8235C75.3228 39.559 75.4749 39.2189 75.4749 38.8221C75.4749 38.4253 75.3228 38.0852 75.0376 37.8017C74.7905 37.5372 74.4293 37.386 73.992 37.386ZM83.9725 41.7131C83.5163 41.6186 83.041 41.5619 82.5848 41.5619C81.4632 41.5619 80.4366 41.8075 79.5811 42.2988C78.7256 42.7901 78.0413 43.4703 77.604 44.3206C77.1478 45.1898 76.9196 46.1913 76.9196 47.3439C76.9196 48.3453 77.1478 49.2334 77.585 50.0459C78.0223 50.8395 78.6306 51.482 79.448 51.9166C80.2275 52.3512 81.14 52.5779 82.1665 52.5779C83.3452 52.5779 84.3528 52.3323 85.1512 51.8788L85.1702 51.8599V49.5924L85.0752 49.668C84.714 49.9325 84.2957 50.1593 83.8775 50.2916C83.4403 50.4427 83.041 50.5183 82.6988 50.5183C81.7103 50.5183 80.9309 50.2349 80.3796 49.6113C79.8092 49.0067 79.5241 48.1753 79.5241 47.136C79.5241 46.059 79.8092 45.2087 80.3986 44.5852C80.9879 43.9616 81.7673 43.6404 82.7179 43.6404C83.5163 43.6404 84.3338 43.9049 85.0752 44.434L85.1702 44.5096V42.1099L85.1512 42.091C84.828 41.9587 84.4668 41.8075 83.9725 41.7131ZM92.1281 41.6375C91.5197 41.6375 90.9494 41.8264 90.4551 42.2232C90.0369 42.5634 89.7517 43.0546 89.5046 43.6404H89.4856V41.8075H87.0142V52.2756H89.4856V46.9282C89.4856 46.0212 89.6757 45.2654 90.0939 44.7174C90.5122 44.1506 91.0445 43.8671 91.6908 43.8671C91.9189 43.8671 92.1471 43.9238 92.4322 43.9616C92.6984 44.0372 92.8885 44.1128 93.0216 44.2073L93.1166 44.2828V41.8264L93.0596 41.8075C92.8885 41.6942 92.5463 41.6375 92.1281 41.6375ZM98.8578 41.5808C97.1278 41.5808 95.7401 42.091 94.7705 43.0924C93.782 44.0939 93.3067 45.4732 93.3067 47.2116C93.3067 48.8366 93.801 50.1593 94.7515 51.123C95.702 52.0677 96.9948 52.559 98.6106 52.559C100.303 52.559 101.652 52.0488 102.622 51.0285C103.61 50.0081 104.086 48.6477 104.086 46.966C104.086 45.3032 103.629 43.9805 102.698 43.0169C101.804 42.0532 100.493 41.5808 98.8578 41.5808ZM100.835 49.6302C100.379 50.216 99.6562 50.4994 98.7627 50.4994C97.8692 50.4994 97.1468 50.216 96.6336 49.5924C96.1203 49.0067 95.8731 48.1564 95.8731 47.0794C95.8731 45.9645 96.1393 45.1142 96.6336 44.5096C97.1468 43.9049 97.8502 43.6026 98.7437 43.6026C99.6182 43.6026 100.303 43.886 100.797 44.4718C101.291 45.0575 101.557 45.9078 101.557 47.0227C101.519 48.1564 101.31 49.0445 100.835 49.6302ZM109.599 46.1535C108.819 45.8323 108.325 45.5866 108.097 45.3788C107.907 45.1898 107.812 44.9253 107.812 44.5852C107.812 44.3017 107.926 44.0183 108.211 43.8294C108.496 43.6404 108.819 43.5459 109.295 43.5459C109.713 43.5459 110.15 43.6215 110.568 43.7349C110.986 43.8482 111.367 44.0183 111.671 44.245L111.766 44.3206V42.0154L111.709 41.9965C111.424 41.8831 111.044 41.7698 110.587 41.6753C110.131 41.5997 109.713 41.5619 109.371 41.5619C108.192 41.5619 107.222 41.8453 106.462 42.4689C105.702 43.0546 105.34 43.8482 105.34 44.7741C105.34 45.2654 105.416 45.7 105.588 46.059C105.759 46.418 106.006 46.7581 106.348 47.0416C106.69 47.3061 107.184 47.6084 107.869 47.8919C108.439 48.1375 108.876 48.3264 109.142 48.4776C109.409 48.6288 109.58 48.7988 109.713 48.9311C109.808 49.0823 109.865 49.2712 109.865 49.5169C109.865 50.216 109.333 50.5561 108.249 50.5561C107.831 50.5561 107.394 50.4805 106.88 50.3105C106.367 50.1404 105.892 49.8948 105.492 49.6113L105.397 49.5357V51.9355L105.454 51.9544C105.816 52.1244 106.253 52.2378 106.785 52.37C107.317 52.4645 107.793 52.5401 108.211 52.5401C109.485 52.5401 110.53 52.2567 111.272 51.6331C112.032 51.0285 112.431 50.2538 112.431 49.2523C112.431 48.5532 112.241 47.9296 111.823 47.4573C111.272 47.0038 110.587 46.5314 109.599 46.1535ZM118.952 41.5808C117.222 41.5808 115.834 42.091 114.865 43.0924C113.895 44.0939 113.401 45.4732 113.401 47.2116C113.401 48.8366 113.895 50.1593 114.846 51.123C115.796 52.0677 117.089 52.559 118.705 52.559C120.397 52.559 121.746 52.0488 122.716 51.0285C123.705 50.0081 124.18 48.6477 124.18 46.966C124.18 45.3032 123.724 43.9805 122.792 43.0169C121.899 42.0532 120.587 41.5808 118.952 41.5808ZM120.91 49.6302C120.454 50.216 119.731 50.4994 118.838 50.4994C117.925 50.4994 117.222 50.216 116.709 49.5924C116.195 49.0067 115.948 48.1564 115.948 47.0794C115.948 45.9645 116.214 45.1142 116.709 44.5096C117.222 43.9049 117.925 43.6026 118.819 43.6026C119.674 43.6026 120.378 43.886 120.872 44.4718C121.366 45.0575 121.632 45.9078 121.632 47.0227C121.632 48.1564 121.385 49.0445 120.91 49.6302ZM137.392 43.8294V41.8075H134.902V38.7087L134.826 38.7276L132.468 39.4267L132.411 39.4456V41.8075H128.685V40.4849C128.685 39.8802 128.837 39.4078 129.104 39.1055C129.37 38.8032 129.769 38.652 130.263 38.652C130.605 38.652 130.967 38.7276 131.366 38.8977L131.461 38.9544V36.8192L131.404 36.8003C131.062 36.6869 130.605 36.6113 130.016 36.6113C129.275 36.6113 128.628 36.7814 128.039 37.0648C127.45 37.386 127.012 37.8206 126.689 38.4064C126.366 38.9732 126.195 39.6157 126.195 40.3526V41.8075H124.465V43.8105H126.195V52.2756H128.685V43.8294H132.411V49.2145C132.411 51.4253 133.457 52.5401 135.548 52.5401C135.89 52.5401 136.251 52.4834 136.594 52.4267C136.955 52.3512 137.221 52.2567 137.373 52.1811L137.392 52.1622V50.1404L137.297 50.216C137.145 50.3105 137.012 50.386 136.784 50.4427C136.594 50.4994 136.423 50.5183 136.289 50.5183C135.795 50.5183 135.453 50.4049 135.206 50.1215C134.978 49.857 134.864 49.4224 134.864 48.7799V43.8294H137.392Z" fill="#737373"/>
<path d="M22.5879 32.8125H34.2413V44.3953H22.5879V32.8125Z" fill="#F25022"/>
<path d="M35.457 32.8125H47.1105V44.3953H35.457V32.8125Z" fill="#7FBA00"/>
<path d="M22.5879 45.6055H34.2413V57.1883H22.5879V45.6055Z" fill="#00A4EF"/>
<path d="M35.457 45.6055H47.1105V57.1883H35.457V45.6055Z" fill="#FFB900"/>
</g>
</g>
<defs>
<clipPath id="clip0_1367_1717">
<rect width="160" height="90" fill="white"/>
</clipPath>
<clipPath id="clip1_1367_1717">
<rect width="114.824" height="24.375" fill="white" transform="translate(22.5879 32.8125)"/>
</clipPath>
</defs>
</svg>
