<svg width="160" height="90" viewBox="0 0 160 90" fill="none" xmlns="http://www.w3.org/2000/svg">
<g clip-path="url(#clip0_1367_1694)">
<rect width="160" height="90" rx="16" fill="white"/>
<g clip-path="url(#clip1_1367_1694)">
<path d="M59.79 51.2611C59.6379 50.8955 59.4953 50.5111 59.3433 50.183L58.64 48.6174L58.6115 48.5892C56.5206 44.0892 54.2871 39.5142 51.9206 35.0142L51.8256 34.8267C51.588 34.3861 51.3504 33.8986 51.1033 33.4486C50.7991 32.9142 50.5045 32.3424 50.0198 31.7986C49.5473 31.2297 48.9527 30.7713 48.2789 30.4565C47.605 30.1418 46.8687 29.9785 46.1232 29.9785C45.3776 29.9785 44.6413 30.1418 43.9674 30.4565C43.2936 30.7713 42.699 31.2297 42.2265 31.7986C41.7798 32.3424 41.4472 32.9142 41.143 33.4486C40.9054 33.9361 40.6678 34.4142 40.4207 34.8549L40.3257 35.0424C37.9972 39.5424 35.7257 44.1174 33.6348 48.6174L33.5778 48.6736C33.3687 49.1611 33.1216 49.6674 32.884 50.2111C32.732 50.5392 32.5799 50.8955 32.4278 51.2892C32.0173 52.3203 31.8862 53.4391 32.0475 54.5353C32.2087 55.6316 32.6568 56.6674 33.3475 57.5409C34.0382 58.4143 34.9477 59.0951 35.9864 59.5162C37.025 59.9373 38.157 60.0842 39.2707 59.9424C40.3385 59.8037 41.3666 59.4529 42.293 58.9111C43.5286 58.2267 44.7166 57.233 46.0471 55.7986C47.3777 57.233 48.5942 58.2267 49.8012 58.9205C50.9619 59.5925 52.2764 59.9634 53.6218 59.9986C55.1799 60.005 56.6877 59.4551 57.8668 58.4505C59.0459 57.4459 59.8168 56.0544 60.0371 54.533C60.2916 53.4396 60.2055 52.296 59.79 51.2517V51.2611ZM46.1422 52.8174C44.5075 50.7549 43.443 48.8611 43.0819 47.2392C42.9322 46.6382 42.9 46.0146 42.9868 45.4017C43.0533 44.9236 43.2339 44.5017 43.481 44.1455C44.0513 43.3299 45.0492 42.8236 46.1422 42.8236C46.6612 42.808 47.1761 42.9197 47.6405 43.1488C48.105 43.3779 48.5045 43.7171 48.8033 44.1361C49.0504 44.5111 49.231 44.9236 49.288 45.4017C49.383 45.9455 49.345 46.5736 49.193 47.2392C48.8318 48.833 47.7674 50.7455 46.1422 52.8174ZM58.2503 54.2049C58.1423 54.9773 57.831 55.7084 57.3475 56.3252C56.8639 56.942 56.2249 57.4231 55.4941 57.7205C54.7718 58.0205 53.9735 58.1049 53.1942 58.0205C52.4338 57.9267 51.6735 57.683 50.8942 57.233C49.6002 56.4441 48.4367 55.4639 47.4442 54.3267C49.4401 51.8892 50.6471 49.6674 51.1033 47.6892C51.3219 46.7517 51.3504 45.908 51.2553 45.1299C51.1367 44.3923 50.8578 43.6888 50.438 43.0674C49.9586 42.3935 49.3187 41.8462 48.5746 41.4735C47.8306 41.1008 47.005 40.9141 46.1707 40.9299C44.4124 40.9299 42.8443 41.7361 41.8939 43.058C41.466 43.6778 41.1895 44.387 41.086 45.1299C40.9625 45.9174 40.991 46.7892 41.2381 47.6892C41.6943 49.6674 42.9298 51.9174 44.8971 54.3455C43.9215 55.5044 42.7553 56.4932 41.4472 57.2705C40.6583 57.7205 39.9075 57.9549 39.1472 58.0486C37.9648 58.198 36.7704 57.881 35.8236 57.1665C34.8768 56.452 34.2542 55.3978 34.091 54.233C33.996 53.483 34.0625 52.733 34.3667 51.8892C34.4617 51.5892 34.6043 51.2892 34.7563 50.933C34.9654 50.4455 35.2125 49.9392 35.4501 49.433L35.4881 49.3674C37.541 44.8955 39.784 40.3299 42.1124 35.858L42.2075 35.6705C42.4451 35.2205 42.6827 34.7424 42.9298 34.2924C43.1769 33.8142 43.443 33.3549 43.7852 32.9799C44.0813 32.6311 44.4514 32.3507 44.8693 32.1582C45.2872 31.9658 45.7427 31.8661 46.2039 31.8661C46.6651 31.8661 47.1207 31.9658 47.5386 32.1582C47.9565 32.3507 48.3266 32.6311 48.6227 32.9799C48.9554 33.3549 49.231 33.8142 49.4781 34.2924C49.7157 34.7424 49.9533 35.2299 50.2004 35.6705L50.2954 35.858C52.6144 40.3299 54.8574 44.8955 56.9483 49.3674L56.9768 49.3955C57.2239 49.883 57.433 50.4267 57.6706 50.8955C57.8226 51.2611 57.9747 51.5517 58.0697 51.8611C58.2503 52.7049 58.3453 53.4549 58.2503 54.2049ZM71.4799 52.6111C70.7638 52.6214 70.0544 52.4726 69.4045 52.1756C68.7547 51.8786 68.1809 51.4411 67.7258 50.8955C66.7033 49.7329 66.1605 48.234 66.2052 46.6955C66.1895 45.1235 66.7498 43.5988 67.7829 42.4017C68.2607 41.8492 68.8556 41.4067 69.5255 41.1054C70.1955 40.8041 70.9242 40.6514 71.6605 40.658C72.3533 40.6393 73.0395 40.7947 73.6546 41.1095C74.2698 41.4244 74.7937 41.8884 75.177 42.458L75.272 40.9861H78.0472V52.3111H75.2625L75.1675 50.6611C74.7723 51.2692 74.226 51.7676 73.5806 52.1089C72.9352 52.4502 72.2121 52.6231 71.4799 52.6111ZM72.2022 49.9111C72.7535 49.9111 73.2382 49.7611 73.6944 49.4892C74.1125 49.1892 74.4547 48.7955 74.7208 48.3174C74.9584 47.8392 75.082 47.2674 75.082 46.6299C75.119 46.0762 75.0097 45.5225 74.7649 45.0229C74.52 44.5234 74.1478 44.095 73.6849 43.7799C73.24 43.5064 72.7264 43.3615 72.2022 43.3615C71.6781 43.3615 71.1645 43.5064 70.7196 43.7799C70.3014 44.0799 69.9593 44.4736 69.6932 44.9517C69.4418 45.479 69.3182 46.0567 69.332 46.6392C69.295 47.1929 69.4042 47.7466 69.6491 48.2462C69.894 48.7457 70.2661 49.174 70.7291 49.4892C71.1758 49.7611 71.6605 49.9111 72.2022 49.9111ZM82.7992 37.9299C82.7992 38.258 82.7422 38.558 82.5901 38.8017C82.4381 39.0361 82.229 39.2517 81.9534 39.4017C81.6778 39.5517 81.3831 39.608 81.079 39.608C80.7749 39.608 80.4707 39.5517 80.1951 39.4017C79.9345 39.2586 79.7153 39.052 79.5584 38.8017C79.4112 38.5347 79.339 38.2337 79.3493 37.9299C79.3493 37.5924 79.4158 37.2924 79.5584 37.058C79.7104 36.7767 79.929 36.608 80.1951 36.458C80.4707 36.308 80.7654 36.2424 81.079 36.2424C81.3815 36.2355 81.6807 36.3062 81.9472 36.4475C82.2138 36.5888 82.4386 36.7959 82.5996 37.0486C82.738 37.3219 82.8065 37.6245 82.7992 37.9299ZM79.5679 52.2736V40.9674H82.5901V52.2924H79.5584L79.5679 52.2736ZM90.6686 43.9299V43.9674C90.526 43.9017 90.3359 43.8736 90.1934 43.8455C90.0033 43.808 89.8512 43.808 89.6707 43.808C88.8248 43.808 88.188 44.0517 87.7698 44.558C87.3137 45.0736 87.1046 45.7955 87.1046 46.7236V52.283H84.0728V40.958H86.8575L86.9525 42.6736C87.2566 42.0736 87.6178 41.6236 88.131 41.2861C88.6415 40.9582 89.2425 40.7944 89.8512 40.8174C90.0698 40.8174 90.2789 40.8361 90.4595 40.8736C90.5545 40.9017 90.6115 40.9017 90.6686 40.9299V43.9299ZM91.8851 52.2736V36.3174H94.9074V42.4111C95.3351 41.8674 95.8198 41.4455 96.428 41.1174C97.391 40.6516 98.4849 40.5195 99.5333 40.7423C100.582 40.9652 101.523 41.5299 102.206 42.3455C103.231 43.5104 103.774 45.0131 103.727 46.5549C103.743 48.1268 103.183 49.6516 102.149 50.8486C101.672 51.4011 101.077 51.8436 100.407 52.1449C99.7368 52.4462 99.0081 52.5989 98.2718 52.5924C97.579 52.6111 96.8928 52.4557 96.2777 52.1408C95.6625 51.8259 95.1386 51.3619 94.7553 50.7924L94.6603 52.2642L91.8851 52.2924V52.2736ZM97.7301 49.9111C98.2718 49.9111 98.7565 49.7611 99.2127 49.4892C99.6309 49.1892 99.973 48.7955 100.239 48.3174C100.486 47.8392 100.6 47.2674 100.6 46.6299C100.6 46.0017 100.486 45.4299 100.239 44.9517C99.9896 44.4907 99.6389 44.0904 99.2127 43.7799C98.7679 43.5064 98.2542 43.3615 97.7301 43.3615C97.2059 43.3615 96.6923 43.5064 96.2474 43.7799C95.8198 44.0799 95.4871 44.4736 95.2115 44.9517C94.9602 45.479 94.8365 46.0567 94.8504 46.6392C94.8133 47.1929 94.9226 47.7466 95.1675 48.2462C95.4123 48.7457 95.7845 49.174 96.2474 49.4892C96.6941 49.7611 97.1788 49.9111 97.7301 49.9111ZM104.868 52.283V40.958H107.652L107.747 42.4299C108.097 41.8657 108.594 41.4039 109.185 41.0924C109.777 40.7809 110.442 40.6309 111.112 40.658C111.878 40.6449 112.631 40.855 113.277 41.2618C113.922 41.6687 114.432 42.2543 114.742 42.9455C115.075 43.658 115.256 44.5392 115.256 45.5236V52.3111H112.224V45.9174C112.224 45.1299 112.043 44.5111 111.682 44.0517C111.321 43.6017 110.827 43.358 110.199 43.358C109.743 43.358 109.344 43.4517 108.992 43.658C108.66 43.8736 108.384 44.1455 108.175 44.5299C107.964 44.9184 107.859 45.3547 107.871 45.7955V52.283H104.868ZM116.767 52.283V36.308H119.798V42.4017C120.209 41.8549 120.743 41.4101 121.359 41.1025C121.974 40.795 122.654 40.6331 123.343 40.6299C124.06 40.6195 124.769 40.7684 125.419 41.0654C126.069 41.3624 126.642 41.7999 127.098 42.3455C128.115 43.5103 128.654 45.0085 128.609 46.5455C128.625 48.1176 128.065 49.6426 127.031 50.8392C126.553 51.3918 125.958 51.8343 125.288 52.1355C124.618 52.4368 123.89 52.5895 123.153 52.583C122.461 52.6017 121.774 52.4463 121.159 52.1314C120.544 51.8165 120.02 51.3525 119.637 50.783L119.551 52.2549L116.767 52.283ZM122.64 49.9111C123.191 49.9111 123.676 49.7611 124.123 49.4892C124.55 49.1892 124.883 48.7955 125.159 48.3174C125.396 47.8392 125.52 47.2674 125.52 46.6299C125.557 46.0762 125.448 45.5225 125.203 45.0229C124.958 44.5234 124.586 44.095 124.123 43.7799C123.678 43.5064 123.164 43.3615 122.64 43.3615C122.116 43.3615 121.602 43.5064 121.158 43.7799C120.739 44.0799 120.397 44.4736 120.131 44.9517C119.866 45.4743 119.741 46.0555 119.77 46.6392C119.733 47.1929 119.842 47.7466 120.087 48.2462C120.332 48.7457 120.704 49.174 121.167 49.4892C121.614 49.7611 122.07 49.9111 122.64 49.9111Z" fill="#FF385C"/>
</g>
</g>
<defs>
<clipPath id="clip0_1367_1694">
<rect width="160" height="90" fill="white"/>
</clipPath>
<clipPath id="clip1_1367_1694">
<rect width="96.9412" height="30" fill="white" transform="translate(32 30)"/>
</clipPath>
</defs>
</svg>
