<svg width="160" height="90" viewBox="0 0 160 90" fill="none" xmlns="http://www.w3.org/2000/svg">
<g clip-path="url(#clip0_1367_1698)">
<rect width="160" height="90" rx="16" fill="white"/>
<g clip-path="url(#clip1_1367_1698)">
<path fill-rule="evenodd" clip-rule="evenodd" d="M92.1402 53.4612C86.5068 57.7253 78.3415 60.0003 71.3114 60.0003C61.4539 60.0003 52.5797 56.2563 45.8661 50.0292C45.3386 49.5395 45.8112 48.8722 46.4442 49.2535C53.6895 53.5826 62.6481 56.1869 71.9021 56.1869C78.1432 56.1869 85.0088 54.8609 91.3216 52.1092C92.2753 51.6932 93.0728 52.7505 92.1402 53.4612Z" fill="#FF9900"/>
<path fill-rule="evenodd" clip-rule="evenodd" d="M94.4839 50.709C93.7665 49.7644 89.724 50.2627 87.9095 50.4837C87.3567 50.553 87.2723 50.059 87.7702 49.7037C90.9899 47.3767 96.2731 48.0483 96.8892 48.8283C97.5053 49.6127 96.7288 55.0511 93.7032 57.6468C93.2391 58.0454 92.796 57.8331 93.0028 57.3044C93.6822 55.5624 95.2055 51.658 94.4839 50.709Z" fill="#FF9900"/>
<path fill-rule="evenodd" clip-rule="evenodd" d="M88.0339 33.2754V31.0134C88.0339 30.6711 88.2871 30.4414 88.5909 30.4414H98.4525C98.769 30.4414 99.0222 30.6754 99.0222 31.0134V32.9504C99.018 33.2754 98.7522 33.7001 98.2795 34.3718L93.1694 41.8642C95.0683 41.8165 97.0727 42.1069 98.7944 43.1035C99.1826 43.3289 99.2881 43.6582 99.3176 43.9832V46.3969C99.3176 46.7262 98.9631 47.1119 98.5918 46.9126C95.5578 45.2789 91.5279 45.1012 88.1731 46.9299C87.8313 47.1206 87.4727 46.7392 87.4727 46.4099V44.1176C87.4727 43.7492 87.4769 43.1209 87.8356 42.5619L93.7559 33.8431H88.6036C88.2871 33.8431 88.0339 33.6134 88.0339 33.2754Z" fill="#1D1E25"/>
<path fill-rule="evenodd" clip-rule="evenodd" d="M52.0596 47.3905H49.0594C48.7724 47.3689 48.5445 47.1478 48.5234 46.8662V31.0537C48.5234 30.7374 48.7808 30.486 49.1015 30.486H51.8993C52.1904 30.499 52.4225 30.7287 52.4436 31.0147V33.0817H52.4985C53.2285 31.084 54.5999 30.1523 56.4482 30.1523C58.326 30.1523 59.4991 31.084 60.3431 33.0817C61.0689 31.084 62.7188 30.1523 64.4869 30.1523C65.7444 30.1523 67.12 30.6853 67.9598 31.8814C68.9092 33.2117 68.7151 35.1444 68.7151 36.8387L68.7109 46.8185C68.7109 47.1348 68.4535 47.3905 68.1328 47.3905H65.1367C64.8371 47.3689 64.5966 47.1218 64.5966 46.8185V38.4378C64.5966 37.7704 64.6557 36.1064 64.5122 35.4737C64.2886 34.4121 63.6176 34.113 62.7483 34.113C62.0225 34.113 61.263 34.6114 60.9549 35.4087C60.6469 36.2061 60.6764 37.5407 60.6764 38.4378V46.8185C60.6764 47.1348 60.419 47.3905 60.0983 47.3905H57.1023C56.7984 47.3689 56.5621 47.1218 56.5621 46.8185L56.5579 38.4378C56.5579 36.6741 56.8406 34.0784 54.7097 34.0784C52.5533 34.0784 52.6377 36.6091 52.6377 38.4378V46.8185C52.6377 47.1348 52.3803 47.3905 52.0596 47.3905" fill="#1D1E25"/>
<path fill-rule="evenodd" clip-rule="evenodd" d="M107.513 30.1523C111.965 30.1523 114.375 34.0784 114.375 39.0704C114.375 43.8935 111.712 47.7199 107.513 47.7199C103.142 47.7199 100.762 43.7938 100.762 38.9014C100.762 33.9787 103.171 30.1523 107.513 30.1523ZM107.539 33.3807C105.328 33.3807 105.188 36.4747 105.188 38.4031C105.188 40.3358 105.159 44.4612 107.513 44.4612C109.838 44.4612 109.948 41.1331 109.948 39.1051C109.948 37.7704 109.893 36.1757 109.501 34.9104C109.163 33.8097 108.492 33.3807 107.539 33.3807Z" fill="#1D1E25"/>
<path fill-rule="evenodd" clip-rule="evenodd" d="M120.147 47.3905H117.16C116.86 47.3689 116.619 47.1218 116.619 46.8185L116.615 31.0017C116.641 30.7113 116.89 30.486 117.193 30.486H119.974C120.236 30.499 120.451 30.681 120.51 30.928V33.346H120.565C121.405 31.1837 122.582 30.1523 124.654 30.1523C126 30.1523 127.312 30.6507 128.156 32.0157C128.941 33.281 128.941 35.4087 128.941 36.9384V46.8922C128.907 47.1695 128.658 47.3905 128.363 47.3905H125.354C125.08 47.3689 124.852 47.1608 124.823 46.8922V38.3034C124.823 36.5744 125.017 34.0437 122.945 34.0437C122.215 34.0437 121.544 34.5464 121.211 35.3091C120.789 36.2754 120.734 37.2374 120.734 38.3034V46.8185C120.73 47.1348 120.468 47.3905 120.147 47.3905" fill="#1D1E25"/>
<path fill-rule="evenodd" clip-rule="evenodd" d="M80.1725 39.8368C80.1725 41.0371 80.202 42.0381 79.6113 43.1041C79.1344 43.9708 78.3749 44.5038 77.5351 44.5038C76.3831 44.5038 75.708 43.6025 75.708 42.2721C75.708 39.6461 77.9993 39.1694 80.1725 39.1694V39.8368ZM83.1981 47.3465C82.9998 47.5285 82.7128 47.5415 82.4892 47.4202C81.4933 46.5708 81.3118 46.1765 80.7675 45.3662C79.1218 47.0908 77.9529 47.6065 75.8219 47.6065C73.2942 47.6065 71.332 46.0075 71.332 42.8051C71.332 40.3048 72.6486 38.6018 74.5306 37.7697C76.1595 37.0331 78.4339 36.9031 80.1725 36.6994V36.3007C80.1725 35.5684 80.2273 34.7017 79.8054 34.069C79.4425 33.5014 78.742 33.2674 78.1217 33.2674C76.9781 33.2674 75.9611 33.8697 75.7122 35.1177C75.6615 35.3951 75.4632 35.6681 75.1889 35.6811L72.2815 35.3604C72.0367 35.3041 71.7624 35.1004 71.8342 34.7147C72.5009 31.092 75.6911 30 78.5437 30C80.0037 30 81.911 30.3987 83.063 31.534C84.5231 32.9337 84.3838 34.8014 84.3838 36.8337V41.6351C84.3838 43.0781 84.9662 43.7108 85.5147 44.4908C85.7046 44.7682 85.7468 45.1018 85.5021 45.3098C84.8902 45.8342 83.8015 46.8092 83.2023 47.3552L83.1981 47.3465" fill="#1D1E25"/>
<path fill-rule="evenodd" clip-rule="evenodd" d="M40.8405 39.8368C40.8405 41.0371 40.87 42.0381 40.2792 43.1041C39.8024 43.9708 39.047 44.5038 38.2031 44.5038C37.0511 44.5038 36.3801 43.6025 36.3801 42.2721C36.3801 39.6461 38.6715 39.1694 40.8405 39.1694V39.8368ZM43.866 47.3465C43.6677 47.5285 43.3808 47.5415 43.1571 47.4202C42.1612 46.5708 41.984 46.1765 41.4354 45.3662C39.7897 47.0908 38.6251 47.6065 36.4899 47.6065C33.9664 47.6065 32 46.0075 32 42.8051C32 40.3048 33.3208 38.6018 35.1986 37.7697C36.8274 37.0331 39.1019 36.9031 40.8405 36.6994V36.3007C40.8405 35.5684 40.8953 34.7017 40.4776 34.069C40.1104 33.5014 39.4099 33.2674 38.7939 33.2674C37.6503 33.2674 36.6291 33.8697 36.3801 35.1177C36.3295 35.3951 36.1312 35.6681 35.8611 35.6811L32.9495 35.3604C32.7047 35.3041 32.4346 35.1004 32.5022 34.7147C33.1731 31.092 36.359 30 39.2116 30C40.6717 30 42.579 30.3987 43.731 31.534C45.1911 32.9337 45.0518 34.8014 45.0518 36.8337V41.6351C45.0518 43.0781 45.6341 43.7108 46.1827 44.4908C46.3768 44.7682 46.419 45.1018 46.1743 45.3098C45.5624 45.8342 44.4737 46.8092 43.8745 47.3552L43.866 47.3465" fill="#1D1E25"/>
</g>
</g>
<defs>
<clipPath id="clip0_1367_1698">
<rect width="160" height="90" fill="white"/>
</clipPath>
<clipPath id="clip1_1367_1698">
<rect width="96.9412" height="30" fill="white" transform="translate(32 30)"/>
</clipPath>
</defs>
</svg>
