<svg width="18" height="16" viewBox="0 0 18 16" fill="none" xmlns="http://www.w3.org/2000/svg">
<path fill-rule="evenodd" clip-rule="evenodd" d="M0.601562 2.00078C0.601562 1.33804 1.13882 0.800781 1.80156 0.800781H16.2016C16.8643 0.800781 17.4016 1.33804 17.4016 2.00078C17.4016 2.66352 16.8643 3.20078 16.2016 3.20078H1.80156C1.13882 3.20078 0.601562 2.66352 0.601562 2.00078Z" fill="#101010"/>
<path fill-rule="evenodd" clip-rule="evenodd" d="M0.601562 8.00078C0.601562 7.33804 1.13882 6.80078 1.80156 6.80078H16.2016C16.8643 6.80078 17.4016 7.33804 17.4016 8.00078C17.4016 8.66352 16.8643 9.20078 16.2016 9.20078H1.80156C1.13882 9.20078 0.601562 8.66352 0.601562 8.00078Z" fill="#101010"/>
<path fill-rule="evenodd" clip-rule="evenodd" d="M7.80156 14.0008C7.80156 13.338 8.33882 12.8008 9.00156 12.8008H16.2016C16.8643 12.8008 17.4016 13.338 17.4016 14.0008C17.4016 14.6635 16.8643 15.2008 16.2016 15.2008H9.00156C8.33882 15.2008 7.80156 14.6635 7.80156 14.0008Z" fill="#101010"/>
</svg>
