<svg width="43" height="43" viewBox="0 0 43 43" fill="none" xmlns="http://www.w3.org/2000/svg">
<circle cx="21.4648" cy="21.4004" r="21" fill="#101010"/>
<path d="M27.9131 26.3416L32.4648 28.6414C31.3555 30.0835 29.9443 31.2372 28.2313 32.1025C26.5345 32.9678 24.691 33.4004 22.7007 33.4004C20.4493 33.4004 18.3937 32.8615 16.5338 31.7837C14.6903 30.7059 13.2138 29.2638 12.1044 27.4573C11.0114 25.6357 10.4648 23.6243 10.4648 21.4232C10.4648 19.7533 10.783 18.1974 11.4192 16.7552C12.0555 15.2979 12.9283 14.0228 14.0377 12.9298C15.1634 11.8216 16.4686 10.9564 17.9532 10.334C19.4378 9.71159 21.0203 9.40039 22.7007 9.40039C24.691 9.40039 26.5345 9.83303 28.2313 10.6983C29.9443 11.5636 31.3555 12.7249 32.4648 14.1822L27.9131 16.482C27.2279 15.723 26.4285 15.1461 25.5149 14.7514C24.6013 14.3416 23.6632 14.1366 22.7007 14.1366C21.3629 14.1366 20.1475 14.4782 19.0544 15.1613C17.9776 15.8292 17.1211 16.7173 16.4849 17.8254C15.8649 18.9184 15.5549 20.1177 15.5549 21.4232C15.5549 22.7135 15.8731 23.9127 16.5093 25.0209C17.1456 26.1139 18.0021 26.9943 19.0789 27.6623C20.1719 28.3302 21.3792 28.6641 22.7007 28.6641C23.7122 28.6641 24.6747 28.4516 25.5883 28.0266C26.5019 27.6015 27.2769 27.0399 27.9131 26.3416Z" fill="white"/>
</svg>
