<svg width="303" height="119" viewBox="0 0 303 119" fill="none" xmlns="http://www.w3.org/2000/svg">
<mask id="mask0_688_3631" style="mask-type:alpha" maskUnits="userSpaceOnUse" x="0" y="0" width="303" height="119">
<rect x="0.195312" y="0.787109" width="302.301" height="117.992" fill="#D9D9D9"/>
</mask>
<g mask="url(#mask0_688_3631)">
<path d="M-68.5009 96.6641C-64.0026 98.5115 -53.3676 103.661 -46.8138 109.478C-38.6216 116.75 -12.113 124.719 3.79828 107.415C19.7095 90.1113 26.9415 83.8823 38.5098 83.8855C50.0782 83.8887 57.7911 81.4677 70.8104 63.4707C83.8298 45.4737 88.0768 36.7782 104.077 36.8251C119.545 36.8705 127.371 47.5627 131.065 53.4485L139.737 66.9514C143.271 72.6064 152.772 82.1854 166.686 83.2088C180.601 84.2322 191.3 79.0596 202.398 70.4303C212.735 62.3939 230.842 53.8222 246.262 70.4424C258.598 83.7386 264.895 88.4482 266.501 89.1409" stroke="#2280FF" stroke-width="3" stroke-linecap="round"/>
<path d="M-92.5042 103.391C-87.2941 104.737 -74.9759 108.489 -67.3845 112.727C-57.8953 118.025 -27.1919 123.833 -8.76539 111.23C9.66111 98.6282 18.0365 94.0919 31.435 94.0956C44.8336 94.0993 53.7665 92.3367 68.8435 79.2294C83.9205 66.122 88.8384 59.7887 107.37 59.8248C125.285 59.8597 134.351 67.6488 138.63 71.9364L148.676 81.7729C152.769 85.8923 163.775 92.8708 179.89 93.6179C196.006 94.365 208.397 90.5985 221.251 84.3143C233.221 78.4619 254.192 72.2205 272.054 84.3284C286.343 94.0147 293.637 97.4459 295.497 97.9507" stroke="#FF5555" stroke-width="3" stroke-linecap="round"/>
</g>
</svg>
