<svg width="50" height="50" viewBox="0 0 50 50" fill="none" xmlns="http://www.w3.org/2000/svg">
<rect x="49.5" y="49.5" width="49" height="49" rx="24.5" transform="rotate(-180 49.5 49.5)" fill="white"/>
<rect x="49.5" y="49.5" width="49" height="49" rx="24.5" transform="rotate(-180 49.5 49.5)" stroke="#CED1D8"/>
<path fill-rule="evenodd" clip-rule="evenodd" d="M24.7356 31.0372C24.3841 31.3886 23.8143 31.3886 23.4628 31.0372L18.0628 25.6372C17.7113 25.2857 17.7113 24.7159 18.0628 24.3644L23.4628 18.9644C23.8143 18.6129 24.3841 18.6129 24.7356 18.9644C25.0871 19.3159 25.0871 19.8857 24.7356 20.2372L20.872 24.1008L31.2992 24.1008C31.7963 24.1008 32.1992 24.5037 32.1992 25.0008C32.1992 25.4978 31.7963 25.9008 31.2992 25.9008L20.872 25.9008L24.7356 29.7644C25.0871 30.1159 25.0871 30.6857 24.7356 31.0372Z" fill="#CED1D8"/>
</svg>
