<svg width="28" height="34" viewBox="0 0 28 34" fill="none" xmlns="http://www.w3.org/2000/svg">
<path d="M10.0594 19.2727C9.47357 18.6869 8.52382 18.6869 7.93804 19.2727C7.35225 19.8585 7.35225 20.8082 7.93804 21.394L10.0594 19.2727ZM12.332 23.6667L11.2714 24.7273C11.8572 25.3131 12.8069 25.3131 13.3927 24.7273L12.332 23.6667ZM20.0594 18.0607C20.6451 17.4749 20.6451 16.5251 20.0594 15.9393C19.4736 15.3536 18.5238 15.3536 17.938 15.9393L20.0594 18.0607ZM24.1654 8.66667V28.6667H27.1654V8.66667H24.1654ZM22.332 30.5H5.66536V33.5H22.332V30.5ZM3.83203 28.6667V8.66667H0.832031V28.6667H3.83203ZM5.66536 6.83333H8.9987V3.83333H5.66536V6.83333ZM18.9987 6.83333H22.332V3.83333H18.9987V6.83333ZM5.66536 30.5C4.65284 30.5 3.83203 29.6792 3.83203 28.6667H0.832031C0.832031 31.336 2.99599 33.5 5.66536 33.5V30.5ZM24.1654 28.6667C24.1654 29.6792 23.3446 30.5 22.332 30.5V33.5C25.0014 33.5 27.1654 31.336 27.1654 28.6667H24.1654ZM27.1654 8.66667C27.1654 5.99729 25.0014 3.83333 22.332 3.83333V6.83333C23.3446 6.83333 24.1654 7.65414 24.1654 8.66667H27.1654ZM3.83203 8.66667C3.83203 7.65414 4.65284 6.83333 5.66536 6.83333V3.83333C2.99599 3.83333 0.832031 5.99729 0.832031 8.66667H3.83203ZM7.93804 21.394L11.2714 24.7273L13.3927 22.606L10.0594 19.2727L7.93804 21.394ZM13.3927 24.7273L20.0594 18.0607L17.938 15.9393L11.2714 22.606L13.3927 24.7273ZM12.332 3.5H15.6654V0.5H12.332V3.5ZM15.6654 7.16667H12.332V10.1667H15.6654V7.16667ZM12.332 7.16667C11.3195 7.16667 10.4987 6.34586 10.4987 5.33333H7.4987C7.4987 8.00271 9.66265 10.1667 12.332 10.1667V7.16667ZM17.4987 5.33333C17.4987 6.34586 16.6779 7.16667 15.6654 7.16667V10.1667C18.3347 10.1667 20.4987 8.00271 20.4987 5.33333H17.4987ZM15.6654 3.5C16.6779 3.5 17.4987 4.32081 17.4987 5.33333H20.4987C20.4987 2.66396 18.3347 0.5 15.6654 0.5V3.5ZM12.332 0.5C9.66265 0.5 7.4987 2.66396 7.4987 5.33333H10.4987C10.4987 4.32081 11.3195 3.5 12.332 3.5V0.5Z" fill="white"/>
</svg>
