<svg width="160" height="90" viewBox="0 0 160 90" fill="none" xmlns="http://www.w3.org/2000/svg">
<g clip-path="url(#clip0_1367_1735)">
<rect width="160" height="90" rx="16" fill="white"/>
<g clip-path="url(#clip1_1367_1735)">
<path fill-rule="evenodd" clip-rule="evenodd" d="M115.177 43.9143L109.306 54.0714L104.298 54.0914L115.177 34.9733L126.015 54.0914H120.927L115.177 43.9133V43.9143ZM99.3697 49.6697H104.979L102.375 54.0914H95.0634L95.0832 48.7075V35.0909H99.3905L99.3707 49.6697H99.3697ZM83.9852 35.0919C89.3339 35.1118 93.661 39.3552 93.6412 44.6006C93.6213 49.8271 89.2942 54.0714 83.9446 54.0714C78.6157 54.0515 74.2886 49.8082 74.2886 44.5617C74.3085 39.3352 78.6356 35.0919 83.9852 35.0919ZM83.9654 49.6508C86.8296 49.6508 89.1325 47.3906 89.1325 44.6006C89.1534 41.8115 86.8296 39.5315 83.9852 39.5315C81.1398 39.5115 78.8161 41.7916 78.8161 44.5817C78.7962 47.3707 81.12 49.6508 83.9644 49.6508H83.9654ZM66.3157 43.0915C66.2562 42.3046 66.0549 41.2637 65.7544 40.2626C65.136 38.1948 64.061 36.2939 62.6094 34.7014C61.8478 33.8766 60.9869 33.1096 59.7035 32.2062C58.7252 31.7213 57.7633 31.2037 56.8195 30.6543C56.1986 30.3007 55.4568 29.8674 54.4759 29.5536C53.3129 29.2779 52.124 29.1266 50.9293 29.1024C49.7689 29.0625 48.6056 29.1621 47.4839 29.3773C46.3017 29.5735 45.3198 29.8873 44.0176 30.202C41.072 31.479 38.7889 33.4045 36.8252 35.9595C29.974 45.5668 36.1647 59.026 47.6039 60.6168C49.4872 60.8728 51.3706 60.7742 53.1529 60.3618L54.4154 60.0281C54.4551 60.0082 54.5156 59.9882 54.5552 59.9882L55.9983 59.4384C56.0776 59.3986 56.1381 59.3786 56.2184 59.3398L56.8195 59.0649C57.9726 58.4933 59.0551 57.7879 60.0447 56.9631C59.1439 57.7852 58.1642 58.5155 57.12 59.1436L57.1795 59.1834C57.3808 59.1236 57.5603 59.0649 57.7607 59.026C57.7607 59.026 57.7607 59.3398 57.721 59.281C57.4006 59.5171 57.9015 59.3009 58.5422 58.9662C59.1839 58.6326 59.8047 58.2192 60.3651 57.748C61.1872 57.0607 61.9083 56.3136 62.9298 55.0964C63.9712 53.2686 65.2744 51.6768 65.8754 49.5352C66.0757 48.9655 66.2552 48.2981 66.3762 47.6098C66.4952 46.9225 66.5766 46.2153 66.5766 45.4881C66.5567 44.761 66.4764 44.0139 66.3157 43.0915ZM51.4906 59.2422C54.9966 58.6913 57.9412 56.7469 60.3452 54.0944C61.0067 53.1311 61.5274 52.2466 62.1681 51.2844C62.9695 49.3191 62.91 47.5709 63.1698 46.3338C63.4911 44.0926 62.7295 42.2857 62.0888 40.3602C61.1069 38.12 59.8047 36.4505 57.5206 35.1536C51.7505 31.5777 43.8976 32.5787 40.1516 37.9238C40.1318 37.9238 40.0306 38.0612 39.8303 38.3361C40.0911 37.2365 40.7527 36.588 41.4132 35.9585C43.3769 34.3478 45.661 33.0698 48.2654 32.4423C51.211 32.1275 54.1347 32.4423 56.759 33.7193C60.6864 35.9585 63.2908 39.4767 63.9513 43.6403V47.4922C63.1301 53.7995 57.721 58.5937 51.4906 59.2422ZM65.8952 44.8984C65.7544 35.6646 56.5993 29.4361 47.6842 30.6941C45.0798 31.3416 42.2344 32.6385 40.2112 34.4464C39.2293 35.0939 38.7691 36.2932 37.7872 37.2554C33.8598 43.0128 34.5422 50.3809 39.4296 54.8613C40.0566 55.4839 40.726 56.0617 41.433 56.5906C37.3469 54.1332 35.5032 50.4188 34.8625 45.9015C34.8625 44.2898 35.1828 42.698 35.523 41.0874C37.8081 34.033 44.9995 28.9051 52.8335 30.202C54.1357 30.5168 55.4379 30.8505 56.7609 31.1653C58.4033 31.8127 60.0259 32.776 61.3281 34.0539C62.6303 35.3299 63.6121 36.9416 64.594 38.5324C65.2545 39.8104 65.5759 41.4211 65.8962 42.698C65.9557 43.4252 65.9557 44.1723 65.8962 44.8994L65.8952 44.8984Z" fill="#1D1E25"/>
<path fill-rule="evenodd" clip-rule="evenodd" d="M57.7612 45.0365C57.7612 49.0059 54.4358 52.2283 50.3289 52.2283C46.2229 52.2283 42.8965 49.0059 42.8965 45.0365C42.8965 41.0681 46.2219 37.8457 50.3289 37.8457C54.4358 37.8457 57.7612 41.0681 57.7612 45.0375V45.0365Z" fill="white"/>
<path fill-rule="evenodd" clip-rule="evenodd" d="M57.8016 43.8176C57.7015 43.2678 57.5408 42.8355 57.3811 42.2268C56.7395 40.8901 55.7983 39.8492 54.5556 38.9646C49.9081 35.8807 43.5171 38.8471 42.8367 44.1135C42.5769 46.1963 43.3177 48.2004 44.6398 49.7334C44.2391 49.32 43.7987 48.8887 43.4982 48.3967L43.4586 48.4365C43.4982 48.554 43.6589 48.6327 43.6986 48.7503C43.6986 48.7503 43.5379 48.7503 43.5786 48.7303C43.4586 48.5939 43.5587 48.81 43.7382 49.1039C43.8989 49.3987 44.0993 49.6746 44.3393 49.9296C44.6804 50.3032 45.0404 50.6369 45.6415 51.0891C46.5241 51.5403 47.3047 52.13 48.3262 52.4049C48.6069 52.4846 48.9272 52.5623 49.2486 52.6211C49.5887 52.6809 49.9091 52.7008 50.2701 52.7008C50.6103 52.7008 50.9713 52.6609 51.4116 52.5812C51.8657 52.5275 52.3146 52.4359 52.7535 52.3073C53.734 52.0109 54.6371 51.5007 55.3986 50.8132C55.7794 50.4606 56.3209 50.0083 56.7404 49.4186C57.0816 48.7513 57.1213 48.4166 57.282 48.1217C57.4416 47.8269 57.642 47.4932 57.7828 47.041C57.8976 46.5045 57.9646 45.9588 57.9831 45.4104C57.9633 44.8605 57.9236 44.3296 57.8026 43.8186L57.8016 43.8176ZM53.0332 40.1639C53.7145 40.5564 53.8147 40.6152 53.4537 40.3602C53.9754 40.4777 54.2957 40.7726 54.6161 41.0674C55.3976 41.9519 56.0383 42.9928 56.3586 44.1911C56.5391 45.5468 56.3983 46.9025 55.8181 48.1018C54.7767 49.9286 53.1135 51.1469 51.13 51.4806C50.9098 51.4806 50.6698 51.4806 50.4486 51.5005C51.01 51.4019 51.371 51.0483 52.3925 50.6747C53.4934 50.2823 54.7361 48.4554 55.3381 47.3936C57.1005 44.5049 55.0167 41.8334 53.0332 40.1639ZM49.2674 51.5194C46.2226 51.2056 43.8781 48.7104 43.5577 45.8218C43.8374 47.4334 44.7994 48.6706 46.1016 49.7713C46.5628 50.0661 47.2432 50.4785 47.7044 50.7733C48.4859 51.0682 48.9461 51.3829 49.7078 51.5204H49.2674V51.5194ZM57.4605 46.274C57.3216 46.8836 57.1808 47.4723 57.04 48.0819C56.7395 48.829 56.2991 49.595 55.6981 50.2036C55.0971 50.8132 54.3354 51.2843 53.5747 51.7366C52.9737 52.0503 52.212 52.2077 51.5911 52.3641C51.2301 52.4039 50.8096 52.2466 50.4486 52.2276C54.8967 52.1091 57.9415 47.9644 57.281 43.8575C56.9596 42.6592 56.3189 41.6172 55.5374 40.5763C55.2171 40.1241 54.5952 39.8492 54.135 39.3969C51.3501 37.6488 47.6647 38.0024 45.5611 40.3014C45.2662 40.6035 44.9915 40.925 44.7389 41.2636C45.8616 39.6131 47.6647 38.4546 49.8278 38.12C50.5894 38.1 51.371 38.2385 52.1317 38.376C55.4977 39.3969 58.002 42.6592 57.4605 46.275V46.274Z" fill="#D7DF23"/>
</g>
</g>
<defs>
<clipPath id="clip0_1367_1735">
<rect width="160" height="90" fill="white"/>
</clipPath>
<clipPath id="clip1_1367_1735">
<rect width="92.2353" height="31.875" fill="white" transform="translate(33.8828 29.0625)"/>
</clipPath>
</defs>
</svg>
