<svg width="160" height="90" viewBox="0 0 160 90" fill="none" xmlns="http://www.w3.org/2000/svg">
<g clip-path="url(#clip0_1367_1747)">
<rect width="160" height="90" rx="16" fill="white"/>
<g clip-path="url(#clip1_1367_1747)">
<path d="M105.472 58.7243C112.981 58.7243 119.091 52.5398 119.091 44.9393C119.091 37.3343 112.981 31.1543 105.472 31.1543C97.9614 31.1543 91.853 37.3343 91.853 44.9393C91.853 52.5398 97.9614 58.7243 105.472 58.7243ZM105.472 40.0238C108.148 40.0238 110.327 42.2288 110.327 44.9378C110.327 47.6468 108.147 49.8488 105.47 49.8488C102.793 49.8488 100.617 47.6468 100.617 44.9363C100.617 42.2243 102.794 40.0208 105.47 40.0208L105.472 40.0238ZM54.0897 58.7243C61.5988 58.7243 67.7087 52.5398 67.7087 44.9393C67.7087 37.3343 61.5988 31.1543 54.0897 31.1543C46.5821 31.1543 40.4707 37.3343 40.4707 44.9393C40.4707 52.5398 46.5821 58.7243 54.0897 58.7243ZM54.0897 40.0238C56.7673 40.0238 58.9451 42.2288 58.9451 44.9378C58.9451 47.6468 56.7673 49.8488 54.0897 49.8488C51.4136 49.8488 49.2373 47.6468 49.2373 44.9363C49.2373 42.2243 51.4151 40.0208 54.0897 40.0208V40.0238ZM79.7734 39.7133L75.5922 31.3343H65.8023L74.9463 49.6643V58.2938H84.6019V49.6643L93.7459 31.3343H83.9516L79.7749 39.7133H79.7734Z" fill="#EE2E24"/>
</g>
</g>
<defs>
<clipPath id="clip0_1367_1747">
<rect width="160" height="90" fill="white"/>
</clipPath>
<clipPath id="clip1_1367_1747">
<rect width="79.0588" height="30" fill="white" transform="translate(40.4707 30)"/>
</clipPath>
</defs>
</svg>
