<svg width="28" height="34" viewBox="0 0 28 34" fill="none" xmlns="http://www.w3.org/2000/svg">
<path d="M8.9987 5.33333H5.66536C3.82442 5.33333 2.33203 6.82572 2.33203 8.66667V28.6667C2.33203 30.5076 3.82442 32 5.66536 32H22.332C24.173 32 25.6654 30.5076 25.6654 28.6667V8.66667C25.6654 6.82572 24.173 5.33333 22.332 5.33333H18.9987M8.9987 5.33333C8.9987 7.17428 10.4911 8.66667 12.332 8.66667H15.6654C17.5063 8.66667 18.9987 7.17428 18.9987 5.33333M8.9987 5.33333C8.9987 3.49238 10.4911 2 12.332 2H15.6654C17.5063 2 18.9987 3.49238 18.9987 5.33333M13.9987 17H18.9987M13.9987 23.6667H18.9987M8.9987 17H9.01536M8.9987 23.6667H9.01536" stroke="white" stroke-width="3" stroke-linecap="round"/>
</svg>
